<?xml version="1.0" encoding="UTF-8"?>
<!DOCTYPE svg PUBLIC "-//W3C//DTD SVG 1.1//EN" "http://www.w3.org/Graphics/SVG/1.1/DTD/svg11.dtd">
<svg xmlns="http://www.w3.org/2000/svg" version="1.1" width="50px" height="50px" style="shape-rendering:geometricPrecision; text-rendering:geometricPrecision; image-rendering:optimizeQuality; fill-rule:evenodd; clip-rule:evenodd" xmlns:xlink="http://www.w3.org/1999/xlink">
<g><path style="opacity:0.818" fill="#fefffe" d="M 6.5,3.5 C 14.5069,3.33362 22.5069,3.50029 30.5,4C 35.0556,6.35008 39.7222,8.51675 44.5,10.5C 45.5748,13.438 45.7415,16.438 45,19.5C 43.3696,27.8579 41.2029,36.0246 38.5,44C 35.2976,45.4833 31.9643,45.8166 28.5,45C 21.3057,42.8944 13.9724,41.5611 6.5,41C 5.66667,40.1667 4.83333,39.3333 4,38.5C 3.33333,27.8333 3.33333,17.1667 4,6.5C 5.04499,5.62656 5.87833,4.62656 6.5,3.5 Z M 8.5,8.5 C 15.0898,8.189 21.5898,8.52234 28,9.5C 28.8163,18.4117 28.6497,27.245 27.5,36C 21.2511,36.8087 15.0844,36.642 9,35.5C 8.50023,26.5062 8.33356,17.5062 8.5,8.5 Z M 33.5,11.5 C 35.4705,12.1616 37.4705,12.8283 39.5,13.5C 39.8333,14.1667 40.1667,14.8333 40.5,15.5C 38.6667,23.5 36.8333,31.5 35,39.5C 31.6152,41.0607 30.9486,40.394 33,37.5C 33.4998,28.8397 33.6664,20.1731 33.5,11.5 Z"/></g>
<g><path style="opacity:0.835" fill="#fefffe" d="M 17.5,11.5 C 22.1797,13.8505 25.513,17.5172 27.5,22.5C 26.4786,26.0231 24.1452,27.8564 20.5,28C 21.3366,29.0113 21.67,30.1779 21.5,31.5C 19.5,31.5 17.5,31.5 15.5,31.5C 15.5,30.1667 15.5,28.8333 15.5,27.5C 9.47267,26.9957 7.97267,23.9957 11,18.5C 13.0329,15.9698 15.1996,13.6365 17.5,11.5 Z"/></g>
</svg>
