<?xml version="1.0" encoding="UTF-8"?>
<!DOCTYPE svg PUBLIC "-//W3C//DTD SVG 1.1//EN" "http://www.w3.org/Graphics/SVG/1.1/DTD/svg11.dtd">
<svg xmlns="http://www.w3.org/2000/svg" version="1.1" width="50px" height="50px" style="shape-rendering:geometricPrecision; text-rendering:geometricPrecision; image-rendering:optimizeQuality; fill-rule:evenodd; clip-rule:evenodd" xmlns:xlink="http://www.w3.org/1999/xlink">
<g><path style="opacity:0.864" fill="#fefffe" d="M 4.5,7.5 C 10.2994,8.53306 15.9661,10.0331 21.5,12C 22.9557,13.7448 24.289,15.5781 25.5,17.5C 27.5543,15.8062 29.8877,14.6395 32.5,14C 36.5824,14.0824 40.5824,14.0824 44.5,14C 46.0099,20.7088 43.6766,22.2088 37.5,18.5C 36.5,18.8333 35.8333,19.5 35.5,20.5C 40.1485,27.9391 42.6485,35.9391 43,44.5C 30.9092,45.6544 18.7425,45.8211 6.5,45C 6.5,41.3333 6.5,37.6667 6.5,34C 8.76214,28.8011 10.7621,23.4678 12.5,18C 12.0969,16.5272 11.4303,15.1939 10.5,14C 4.18567,15.8519 2.18567,13.6852 4.5,7.5 Z M 17.5,16.5 C 19.4095,17.9746 20.5762,19.9746 21,22.5C 21.4994,27.8229 21.666,33.1563 21.5,38.5C 18.5525,38.7771 15.7191,38.4438 13,37.5C 12.3333,35.5 12.3333,33.5 13,31.5C 15.617,26.8174 17.117,21.8174 17.5,16.5 Z"/></g>
</svg>
