<?xml version="1.0" encoding="UTF-8"?>
<!DOCTYPE svg PUBLIC "-//W3C//DTD SVG 1.1//EN" "http://www.w3.org/Graphics/SVG/1.1/DTD/svg11.dtd">
<svg xmlns="http://www.w3.org/2000/svg" version="1.1" width="50px" height="50px" style="shape-rendering:geometricPrecision; text-rendering:geometricPrecision; image-rendering:optimizeQuality; fill-rule:evenodd; clip-rule:evenodd" xmlns:xlink="http://www.w3.org/1999/xlink">
<g><path style="opacity:0.539" fill="#fefffe" d="M 23.5,4.5 C 24.4959,4.41423 25.3292,4.74756 26,5.5C 26.4966,7.80982 26.6633,10.1432 26.5,12.5C 25.1667,12.5 23.8333,12.5 22.5,12.5C 22.2786,9.72116 22.612,7.05449 23.5,4.5 Z"/></g>
<g><path style="opacity:0.538" fill="#fefffe" d="M 16.5,16.5 C 12.1667,16.8333 10.1667,14.8333 10.5,10.5C 14.8333,10.1667 16.8333,12.1667 16.5,16.5 Z"/></g>
<g><path style="opacity:0.538" fill="#fefffe" d="M 32.5,16.5 C 32.1667,12.1667 34.1667,10.1667 38.5,10.5C 38.8333,14.8333 36.8333,16.8333 32.5,16.5 Z"/></g>
<g><path style="opacity:0.83" fill="#fefffe" d="M 32.5,16.5 C 33.627,18.9977 34.2937,21.6644 34.5,24.5C 34.2937,27.3356 33.627,30.0023 32.5,32.5C 30.0023,33.627 27.3356,34.2937 24.5,34.5C 21.6644,34.2937 18.9977,33.627 16.5,32.5C 15.373,30.0023 14.7063,27.3356 14.5,24.5C 14.7063,21.6644 15.373,18.9977 16.5,16.5C 18.9977,15.373 21.6644,14.7063 24.5,14.5C 27.3356,14.7063 30.0023,15.373 32.5,16.5 Z"/></g>
<g><path style="opacity:0.546" fill="#fefffe" d="M 5.5,22.5 C 7.83333,22.5 10.1667,22.5 12.5,22.5C 12.5,23.8333 12.5,25.1667 12.5,26.5C 10.1432,26.6633 7.80982,26.4966 5.5,26C 4.3157,24.8545 4.3157,23.6879 5.5,22.5 Z"/></g>
<g><path style="opacity:0.546" fill="#fefffe" d="M 36.5,22.5 C 38.8568,22.3367 41.1902,22.5034 43.5,23C 44.8333,24 44.8333,25 43.5,26C 41.1902,26.4966 38.8568,26.6633 36.5,26.5C 36.5,25.1667 36.5,23.8333 36.5,22.5 Z"/></g>
<g><path style="opacity:0.538" fill="#fefffe" d="M 16.5,32.5 C 16.8333,36.8333 14.8333,38.8333 10.5,38.5C 10.1667,34.1667 12.1667,32.1667 16.5,32.5 Z"/></g>
<g><path style="opacity:0.538" fill="#fefffe" d="M 32.5,32.5 C 36.8333,32.1667 38.8333,34.1667 38.5,38.5C 34.1667,38.8333 32.1667,36.8333 32.5,32.5 Z"/></g>
<g><path style="opacity:0.538" fill="#fefffe" d="M 22.5,36.5 C 23.8333,36.5 25.1667,36.5 26.5,36.5C 26.6633,38.8568 26.4966,41.1902 26,43.5C 25,44.8333 24,44.8333 23,43.5C 22.5034,41.1902 22.3367,38.8568 22.5,36.5 Z"/></g>
</svg>
