<?xml version="1.0" encoding="UTF-8"?>
<!DOCTYPE svg PUBLIC "-//W3C//DTD SVG 1.1//EN" "http://www.w3.org/Graphics/SVG/1.1/DTD/svg11.dtd">
<svg xmlns="http://www.w3.org/2000/svg" version="1.1" width="50px" height="50px" style="shape-rendering:geometricPrecision; text-rendering:geometricPrecision; image-rendering:optimizeQuality; fill-rule:evenodd; clip-rule:evenodd" xmlns:xlink="http://www.w3.org/1999/xlink">
<g><path style="opacity:0.823" fill="#fefffe" d="M 21.5,3.5 C 28.3752,3.00583 30.3752,5.6725 27.5,11.5C 28.0402,12.7481 28.7069,13.9148 29.5,15C 44.4016,16.3068 48.9016,23.8068 43,37.5C 39.8638,39.164 38.6971,41.8307 39.5,45.5C 29.5,45.5 19.5,45.5 9.5,45.5C 9.66212,43.4727 9.49546,41.4727 9,39.5C 3.83502,35.3851 2.16835,30.0518 4,23.5C 7.70335,17.6473 13.0367,14.6473 20,14.5C 21.808,12.258 21.6413,10.0913 19.5,8C 20.0735,6.39332 20.7402,4.89332 21.5,3.5 Z M 14.5,20.5 C 16.677,20.5861 18.677,21.2528 20.5,22.5C 21.4933,27.1196 21.8266,31.7863 21.5,36.5C 12.3417,38.1654 8.17502,34.4987 9,25.5C 10.7297,23.5981 12.563,21.9314 14.5,20.5 Z M 31.5,20.5 C 37.9857,21.473 40.819,25.1396 40,31.5C 39.1667,33.6667 37.6667,35.1667 35.5,36C 32.854,36.4974 30.1873,36.6641 27.5,36.5C 27.1734,31.7863 27.5067,27.1196 28.5,22.5C 29.7387,22.0576 30.7387,21.3909 31.5,20.5 Z"/></g>
</svg>
