<?xml version="1.0" encoding="UTF-8"?>
<!DOCTYPE svg PUBLIC "-//W3C//DTD SVG 1.1//EN" "http://www.w3.org/Graphics/SVG/1.1/DTD/svg11.dtd">
<svg xmlns="http://www.w3.org/2000/svg" version="1.1" width="50px" height="50px" style="shape-rendering:geometricPrecision; text-rendering:geometricPrecision; image-rendering:optimizeQuality; fill-rule:evenodd; clip-rule:evenodd" xmlns:xlink="http://www.w3.org/1999/xlink">
<g><path style="opacity:0.823" fill="#fefffe" d="M 3.5,3.5 C 6.98809,3.70535 10.3214,4.53869 13.5,6C 20.1667,13.3333 26.8333,20.6667 33.5,28C 35.6691,26.8862 37.5024,27.3862 39,29.5C 38.6429,33.8591 40.8096,36.6924 45.5,38C 47.0074,38.8373 47.5074,40.0039 47,41.5C 44.9835,43.684 42.8169,45.684 40.5,47.5C 38.4382,44.2417 35.9382,41.2417 33,38.5C 31.0624,39.8602 29.3957,39.5268 28,37.5C 29.0208,34.2902 27.8542,31.9568 24.5,30.5C 21.5114,31.751 20.5114,33.751 21.5,36.5C 20.3265,39.2789 18.4932,39.9455 16,38.5C 13.5275,40.2985 11.8608,42.6318 11,45.5C 10.1627,47.0074 8.99608,47.5074 7.5,47C 5.31604,44.9835 3.31604,42.8169 1.5,40.5C 4.75825,38.4382 7.75825,35.9382 10.5,33C 9.05447,30.5068 9.72114,28.6735 12.5,27.5C 15.2713,28.7734 16.938,27.7734 17.5,24.5C 14.1477,20.314 10.3144,16.6474 6,13.5C 4.53869,10.3214 3.70535,6.98809 3.5,3.5 Z"/></g>
<g><path style="opacity:0.821" fill="#fefffe" d="M 41.5,3.5 C 42.8333,3.5 44.1667,3.5 45.5,3.5C 45.2946,6.98809 44.4613,10.3214 43,13.5C 39.3528,16.3128 35.8528,19.3128 32.5,22.5C 30.1667,20.8333 28.1667,18.8333 26.5,16.5C 29.6872,13.1472 32.6872,9.64723 35.5,6C 37.6115,5.15532 39.6115,4.32198 41.5,3.5 Z"/></g>
</svg>
